<?xml version="1.0" encoding="utf-8"?>
<!-- Generator: Adobe Illustrator 22.0.1, SVG Export Plug-In . SVG Version: 6.00 Build 0)  -->
<svg version="1.1" id="katman_1" xmlns="http://www.w3.org/2000/svg" xmlns:xlink="http://www.w3.org/1999/xlink" x="0px" y="0px"
	 viewBox="0 0 566.3 140.5" style="enable-background:new 0 0 566.3 140.5;" xml:space="preserve">
<style type="text/css">
	.st0{fill:#002169;}
</style>
<g>
	<rect x="234.6" y="32.1" class="st0" width="14.6" height="14.6"/>
	<g>
		<polygon class="st0" points="298.5,74.9 298.1,74.9 280.3,31.8 263.2,31.8 263.2,108.5 278,108.5 278,61.4 278.3,61.4 
			297.5,108.5 313.2,108.5 313.2,31.8 298.5,31.8 		"/>
		<rect x="234.6" y="53.5" class="st0" width="14.7" height="55"/>
		<path class="st0" d="M455.2,31.8l-18.4,76.7h14.3l6.1-25.5h15.5l6.1,25.5h14.3l-18.4-76.7H455.2z M460.1,71l4.9-20.3l4.9,20.3
			H460.1z"/>
		<polygon class="st0" points="490.5,31.8 490.5,45.8 507.7,45.8 507.7,108.5 522.4,108.5 522.4,45.8 539.5,45.8 539.5,31.8 		"/>
		<path class="st0" d="M393.4,31.8L375,108.5h14.3l6.1-25.5h15.5l6.1,25.5h14.3L413,31.8H393.4z M398.3,71l4.9-20.3L408,71H398.3z"
			/>
		<path class="st0" d="M362.8,70c-1.8-1.4-7-4.6-15.8-9.6c-5.6-3.2-8.5-4.9-8.5-9c-0.1-6,3.6-7.8,8.3-7.8c4.8,0,8.3,2.6,10.7,9.4
			l13.1-3.8c-1.3-5.6-4-10.1-7.8-13.3c-4.2-3.5-9.4-5.3-15.7-5.3c-7.5,0-13.3,1.9-17.1,5.8c-4,3.7-6.1,9-6.1,15.7
			c0,6.1,2.9,11.4,8.6,15.8c5.1,3,10.4,6.2,15.7,9.3c5.6,3.5,8.5,7.2,8.5,11.1c0,2.9-0.8,5.1-2.6,6.7c-1.8,1.6-3.8,2.4-6.4,2.4
			c-2.5,0-4.8-1-6.7-2.7c-2.4-2.2-4-5.6-4.6-9.8l-14.6,3c2.7,10,7.5,16.5,14.4,19.5c0,0,1.6,1,4.3,1.7v5.9H355v-6.3
			c1.4-0.4,2.8-0.9,4.3-1.6c2-0.9,3.9-2.1,5.5-3.6c4.3-4,6.6-9.3,6.6-16C371.3,80.8,368.4,75,362.8,70z"/>
	</g>
	<g>
		<polygon class="st0" points="103.8,72.1 113.5,72.1 108.7,51.7 		"/>
		<path class="st0" d="M166.8,44.9H159v21.8h7.9c7.2,0,10.9-3.7,10.9-10.9C177.7,48.5,174,44.9,166.8,44.9z"/>
		<path class="st0" d="M0,0v140.4h566.6V0H0z M48.6,97.7c2.7,0,4.8-1,6.4-2.9c1.6-1.9,2.4-4.5,2.4-7.8v-2.9h-5.2v-12h20v37.5h-7.7
			l-2.2-6.4c-4.3,5-9,7.5-13.6,7.5c-16.2,0-24.3-8.6-24.3-25.8V57.5c0-17.1,8.2-25.8,24.3-25.8c15.2,0,23.1,8.6,23.5,26.1H57.4
			c0-8.8-2.9-13.1-8.8-13.1c-6.4,0-9.6,3.7-9.6,10.9v31.2C39,94,42.2,97.7,48.6,97.7z M122.5,109.5l-6.1-25.5h-15.5l-6.1,25.5H80.5
			l18.4-76.7h19.6l18.4,76.7H122.5z M166.4,78.8H160v30.7h-14.7V32.8h21.1c17.9,0,26.9,7.7,26.9,22.9
			C193.3,71.1,184.3,78.8,166.4,78.8z M556,129.9H213.5V10.5H556V129.9z"/>
	</g>
</g>
</svg>
