<svg xmlns="http://www.w3.org/2000/svg" viewBox="0 0 915.47 67.61"><defs><style>.cls-1{fill:#cc9;}</style></defs><g id="Layer_2" data-name="Layer 2"><g id="Layer_1-2" data-name="Layer 1"><path class="cls-1" d="M14.11,14.69V57.46h20v7.63H5.62V14.69Z" transform="translate(-5.62 0)"/><path class="cls-1" d="M41,1.37a5,5,0,0,1,6.91,0,4.48,4.48,0,0,1,1.44,3.38A4.52,4.52,0,0,1,48,8.1,5,5,0,0,1,41,8.1,4.52,4.52,0,0,1,39.6,4.75,4.48,4.48,0,0,1,41,1.37Zm7.77,13.32v50.4H40.25V14.69Z" transform="translate(-5.62 0)"/><path class="cls-1" d="M105.19,14.69V67.61L68.4,31.25V65.09H60.05V12.17L96.84,48.53V14.69Z" transform="translate(-5.62 0)"/><path class="cls-1" d="M127.65,47.45l-.14,1.87-7,15.77H111l24.62-53.21L160.2,65.09h-9.58l-6.84-15.34-.21-2.09-8-18.72ZM124,44.93h23.4l1.66,7.2H122.4Z" transform="translate(-5.62 0)"/><path class="cls-1" d="M172.91,54a14.05,14.05,0,0,0,4.21,3.39,11.14,11.14,0,0,0,5.18,1.19,8.26,8.26,0,0,0,5.62-1.88,6.07,6.07,0,0,0,2.16-4.82,7,7,0,0,0-1.37-4.5,10.93,10.93,0,0,0-3.78-2.88,57.48,57.48,0,0,0-5.58-2.34,39.46,39.46,0,0,1-4.18-1.76,23,23,0,0,1-4.39-2.81,14,14,0,0,1-3.45-4.18,12.19,12.19,0,0,1-1.37-6,12.21,12.21,0,0,1,2.09-7.09,13.79,13.79,0,0,1,5.65-4.75,18.6,18.6,0,0,1,8.1-1.7,17.76,17.76,0,0,1,7.77,1.59,18.1,18.1,0,0,1,5.58,4,21.22,21.22,0,0,1,3.57,5.11l-6.91,3.89A16.21,16.21,0,0,0,189.43,25a11.22,11.22,0,0,0-3.35-2.59,9.61,9.61,0,0,0-4.43-1q-3.53,0-5.18,1.62a5.11,5.11,0,0,0-1.66,3.78,5.63,5.63,0,0,0,1.19,3.5,11.52,11.52,0,0,0,3.71,2.91A47.66,47.66,0,0,0,186.26,36a31.67,31.67,0,0,1,4.5,2,18,18,0,0,1,4.14,3.06,14,14,0,0,1,3,4.28A13.83,13.83,0,0,1,199,51.12a14.36,14.36,0,0,1-1.37,6.34,13.51,13.51,0,0,1-3.75,4.71,17.81,17.81,0,0,1-5.36,3,18.65,18.65,0,0,1-6.23,1,19.17,19.17,0,0,1-8.24-1.77,21.45,21.45,0,0,1-6.59-4.71A24.92,24.92,0,0,1,163,53.28l6.33-4.39A31.78,31.78,0,0,0,172.91,54Z" transform="translate(-5.62 0)"/><path class="cls-1" d="M237.67,14.69v50.4h-8.35V14.69Zm-3.1,0h22.54v7.63H234.57Zm0,20.23h21.82v7.42H234.57Z" transform="translate(-5.62 0)"/><path class="cls-1" d="M265.89,29.45a24.3,24.3,0,0,1,5.51-8.25,25.58,25.58,0,0,1,8.35-5.43,28.63,28.63,0,0,1,20.77,0,25.66,25.66,0,0,1,8.32,5.43,24.3,24.3,0,0,1,5.51,8.25,27.45,27.45,0,0,1,1.94,10.44,27.82,27.82,0,0,1-1.94,10.44,24.86,24.86,0,0,1-5.47,8.35,25.45,25.45,0,0,1-8.32,5.51,28.62,28.62,0,0,1-20.92,0,24.61,24.61,0,0,1-13.75-13.86A27.82,27.82,0,0,1,264,39.89,27.45,27.45,0,0,1,265.89,29.45Zm9.25,19.69a16.24,16.24,0,0,0,6.09,6.37,18.2,18.2,0,0,0,17.75,0,16.25,16.25,0,0,0,6-6.37,19.1,19.1,0,0,0,2.2-9.25,19.4,19.4,0,0,0-2.16-9.25,16,16,0,0,0-6-6.38,18.41,18.41,0,0,0-17.82,0,16.26,16.26,0,0,0-6.09,6.38A19.18,19.18,0,0,0,273,39.89,19.21,19.21,0,0,0,275.14,49.14Z" transform="translate(-5.62 0)"/><path class="cls-1" d="M333.07,14.69v50.4h-8.5V14.69Zm-3.46,0h10.51a22,22,0,0,1,9.54,1.94,14.43,14.43,0,0,1,8.54,13.68A15.13,15.13,0,0,1,356,38.59a14.79,14.79,0,0,1-6.3,5.47A21.84,21.84,0,0,1,340.12,46H329.61V39h10.15a12.12,12.12,0,0,0,5.08-1,8,8,0,0,0,3.42-2.92,8.34,8.34,0,0,0,1.22-4.57,8.29,8.29,0,0,0-1.22-4.61A7.94,7.94,0,0,0,344.84,23a12.12,12.12,0,0,0-5.08-1H329.61ZM344.16,41l17.06,24.05H351L334.94,41Z" transform="translate(-5.62 0)"/><path class="cls-1" d="M375.76,14.69v50.4h-8.35V14.69Zm-3.09,0h25.41v7.49H372.67Zm0,19.73h24v7.34h-24Zm0,23.18h25.41v7.49H372.67Z" transform="translate(-5.62 0)"/><path class="cls-1" d="M417.09,14.69v50.4h-8.57V14.69Z" transform="translate(-5.62 0)"/><path class="cls-1" d="M452.3,38.74h24.26a31.15,31.15,0,0,1-1.44,10.47A25.86,25.86,0,0,1,470.37,58a22.34,22.34,0,0,1-7.88,6,25,25,0,0,1-10.7,2.2,28.38,28.38,0,0,1-10.51-1.91,24.65,24.65,0,0,1-8.39-5.44,24.4,24.4,0,0,1-5.5-8.35,27.94,27.94,0,0,1-1.95-10.58,27.35,27.35,0,0,1,2-10.55A24.62,24.62,0,0,1,433,21.06a24.21,24.21,0,0,1,8.42-5.36,29.08,29.08,0,0,1,10.55-1.88,28.54,28.54,0,0,1,9,1.34A23.92,23.92,0,0,1,468.17,19a23.36,23.36,0,0,1,5.44,6l-6.91,4.61a15.79,15.79,0,0,0-5.8-5.76,19,19,0,0,0-17.82.11,17,17,0,0,0-6.33,6.34,18.64,18.64,0,0,0-2.38,9.61,19.19,19.19,0,0,0,2.34,9.61,16.88,16.88,0,0,0,6.3,6.44,17.4,17.4,0,0,0,8.93,2.31,18.08,18.08,0,0,0,6.05-.94,13.59,13.59,0,0,0,4.6-2.66,15.8,15.8,0,0,0,3.24-4,18.43,18.43,0,0,0,1.95-4.75H452.3Z" transform="translate(-5.62 0)"/><path class="cls-1" d="M530.42,14.69V67.61l-36.8-36.36V65.09h-8.35V12.17l36.79,36.36V14.69Z" transform="translate(-5.62 0)"/><path class="cls-1" d="M558.14,14.69h35.13v7.85H580V65.09h-8.57V22.54H558.14Z" transform="translate(-5.62 0)"/><path class="cls-1" d="M608,14.69v50.4h-8.5V14.69Zm-3.46,0H615a22,22,0,0,1,9.54,1.94,14.4,14.4,0,0,1,8.53,13.68,15.21,15.21,0,0,1-2.23,8.28,14.79,14.79,0,0,1-6.3,5.47A21.9,21.9,0,0,1,615,46H604.5V39h10.16a12,12,0,0,0,5.07-1,7.9,7.9,0,0,0,3.42-2.92,8.26,8.26,0,0,0,1.23-4.57,8.21,8.21,0,0,0-1.23-4.61A7.89,7.89,0,0,0,619.73,23a12,12,0,0,0-5.07-1H604.5ZM619.05,41l17.06,24.05H625.89L609.83,41Z" transform="translate(-5.62 0)"/><path class="cls-1" d="M653.61,47.45l-.15,1.87-7,15.77H636.9l24.63-53.21,24.62,53.21h-9.58l-6.84-15.34-.21-2.09-8-18.72Zm-3.68-2.52h23.4l1.66,7.2H648.35Z" transform="translate(-5.62 0)"/><path class="cls-1" d="M700.62,14.69v50.4H692V14.69Zm-3.38,50.4v-8H708A21.3,21.3,0,0,0,715,56a15.31,15.31,0,0,0,5.51-3.24,15,15,0,0,0,3.67-5.4,19.56,19.56,0,0,0,1.33-7.49,19.56,19.56,0,0,0-1.33-7.49,15,15,0,0,0-3.67-5.4A15.31,15.31,0,0,0,715,23.76,21.3,21.3,0,0,0,708,22.68h-10.8v-8h11a28.17,28.17,0,0,1,13.54,3.13,22.85,22.85,0,0,1,9.11,8.78,26.08,26.08,0,0,1,3.27,13.29,26,26,0,0,1-3.27,13.28A22.8,22.8,0,0,1,721.79,62a28.28,28.28,0,0,1-13.54,3.13Z" transform="translate(-5.62 0)"/><path class="cls-1" d="M750.8,14.69v50.4h-8.35V14.69Zm-3.09,0h25.41v7.49H747.71Zm0,19.73h24v7.34h-24Zm0,23.18h25.41v7.49H747.71Z" transform="translate(-5.62 0)"/><path class="cls-1" d="M813.84,49.25a17,17,0,0,0,6.34,6.23,17.2,17.2,0,0,0,8.53,2.19,21,21,0,0,0,6.48-.93,20.13,20.13,0,0,0,5.22-2.56,21.32,21.32,0,0,0,4.07-3.64V60.62a24.09,24.09,0,0,1-6.84,4A26.72,26.72,0,0,1,828.42,66a28,28,0,0,1-10.33-1.87,24,24,0,0,1-8.32-5.4,25.24,25.24,0,0,1-5.51-8.32,27.12,27.12,0,0,1-2-10.47,27.17,27.17,0,0,1,2-10.48,25.3,25.3,0,0,1,5.51-8.31,23.74,23.74,0,0,1,8.32-5.4,28.05,28.05,0,0,1,10.33-1.88,26.72,26.72,0,0,1,9.22,1.37,24.09,24.09,0,0,1,6.84,4V29.23a21.62,21.62,0,0,0-4.07-3.63A19.82,19.82,0,0,0,835.19,23a21,21,0,0,0-6.48-.94,17.21,17.21,0,0,0-8.53,2.2,17,17,0,0,0-6.34,6.19,17.84,17.84,0,0,0-2.41,9.4A17.87,17.87,0,0,0,813.84,49.25Z" transform="translate(-5.62 0)"/><path class="cls-1" d="M854,29.45a24.15,24.15,0,0,1,5.51-8.25,25.48,25.48,0,0,1,8.35-5.43,28.63,28.63,0,0,1,20.77,0,25.66,25.66,0,0,1,8.32,5.43,24.27,24.27,0,0,1,5.5,8.25,27.26,27.26,0,0,1,2,10.44,27.62,27.62,0,0,1-2,10.44A24.71,24.71,0,0,1,897,58.68a25.3,25.3,0,0,1-8.31,5.51,28.62,28.62,0,0,1-20.92,0A24.61,24.61,0,0,1,854,50.33,27.62,27.62,0,0,1,852,39.89,27.26,27.26,0,0,1,854,29.45Zm9.25,19.69a16.14,16.14,0,0,0,6.08,6.37,18.2,18.2,0,0,0,17.75,0,16.21,16.21,0,0,0,6.05-6.37,19.21,19.21,0,0,0,2.2-9.25,19.4,19.4,0,0,0-2.16-9.25,16,16,0,0,0-6-6.38,18.41,18.41,0,0,0-17.82,0,16.17,16.17,0,0,0-6.08,6.38A19.18,19.18,0,0,0,861,39.89,19.21,19.21,0,0,0,863.23,49.14Z" transform="translate(-5.62 0)"/><path class="cls-1" d="M912.41,57.85A4.85,4.85,0,0,1,916,56.38a5,5,0,0,1,3.67,8.56A4.84,4.84,0,0,1,916,66.46a4.79,4.79,0,0,1-3.56-1.52,5,5,0,0,1,0-7.09Z" transform="translate(-5.62 0)"/></g></g></svg>