<svg xmlns="http://www.w3.org/2000/svg" viewBox="0 0 751.03 408.58"><defs><style>.cls-1{fill:#42758f;}.cls-2,.cls-3{fill:#014458;}.cls-3{fill-rule:evenodd;}</style></defs><g id="Layer_2" data-name="Layer 2"><g id="Layer_1-2" data-name="Layer 1"><path class="cls-1" d="M422.66,109.37,313.39,218.75H750.48L641.2,109.37,531.93,0Zm173.78,16,61.88,61.94H562.74L548,165.45c-8.16-12.12-14.74-22.66-14.74-23.72,0-.79,6.32-1.84,14.22-2.37l14.22-.79L547.47,103C534.3,70.05,532.2,63.46,534,63.46,534.3,63.46,562.48,91.4,596.44,125.39Z"/><path class="cls-2" d="M93.55,125,.09,218.75H187l77.66-77.91c42.65-42.78,77.14-77.9,76.35-77.9s-20.8,6.6-44.23,14.52C273.09,85.39,252.3,92,250.72,92c-1.85,0-16.85-13.73-33.44-30.37L187,31.25Zm53.71,25.32-36.86,37-15.53-.79-15.54-.79,49.76-36.18c27.64-19.81,51.07-36.18,52.65-36.18C183.06,113.08,167.79,129.72,147.26,150.32Z"/><path class="cls-2" d="M378.29,77.85,364.22,92.09h13c12.25,0,13.81-.78,27.09-14.24L418.4,63.62h-13C393.13,63.62,391.57,64.39,378.29,77.85Z"/><path class="cls-2" d="M315.93,139.71l-15.68,16.2h13.29c12.48,0,13.81-.81,29-16.2l15.67-16.2H344.88C332.4,123.51,331.07,124.32,315.93,139.71Z"/><path class="cls-2" d="M252.63,202.55,237,218.75h13.29c12.48,0,13.81-.81,29-16.2l15.67-16.2H281.58C269.1,186.35,267.77,187.16,252.63,202.55Z"/><path class="cls-1" d="M0,402.33V383.68H4.91v15.71h8.84v2.94Zm41.07-9.21a10.65,10.65,0,0,1-1.31,5.43A8.79,8.79,0,0,1,36.22,402a10.69,10.69,0,0,1-5,1.17A10.6,10.6,0,0,1,26.14,402a8.61,8.61,0,0,1-3.53-3.42,11.95,11.95,0,0,1,0-10.84,8.56,8.56,0,0,1,3.53-3.4,10.61,10.61,0,0,1,5.05-1.19,10.58,10.58,0,0,1,5,1.19,8.64,8.64,0,0,1,3.54,3.4A10.6,10.6,0,0,1,41.07,393.12Zm-4.52,0a8.18,8.18,0,0,0-.67-3.48A4.85,4.85,0,0,0,34,387.48a5.81,5.81,0,0,0-5.64,0,4.87,4.87,0,0,0-1.88,2.16,9.5,9.5,0,0,0,0,7,4.84,4.84,0,0,0,1.88,2.15,5.74,5.74,0,0,0,5.64,0,4.82,4.82,0,0,0,1.87-2.15A8.21,8.21,0,0,0,36.55,393.12Zm22.36-9.44h3.93V397a3.91,3.91,0,0,1-.58,3.28,5.82,5.82,0,0,1-2.52,2.14,8.85,8.85,0,0,1-3.76.75,9.31,9.31,0,0,1-3.46-.62,5.45,5.45,0,0,1-2.46-1.9,5.38,5.38,0,0,1-.89-3.19h4.44a2.61,2.61,0,0,0,.34,1.29,2.22,2.22,0,0,0,.89.83,2.93,2.93,0,0,0,1.36.29,2.8,2.8,0,0,0,1.39-.32,2.15,2.15,0,0,0,.88-1,7.71,7.71,0,0,0,.44-1.57Zm18.65,0v19.63H72.65V383.68Zm-2.49-2.19a2.51,2.51,0,0,1-1.68-.6,1.86,1.86,0,0,1-.7-1.46,1.83,1.83,0,0,1,.7-1.44,2.51,2.51,0,0,1,1.67-.61,2.48,2.48,0,0,1,1.68.61,1.83,1.83,0,0,1,.7,1.44,1.86,1.86,0,0,1-.7,1.46A2.46,2.46,0,0,1,75.07,381.49Zm23.31,7.1a2.38,2.38,0,0,0-1.07-1.81,4.5,4.5,0,0,0-2.57-.65,5.36,5.36,0,0,0-1.87.29,2.7,2.7,0,0,0-1.16.78,1.74,1.74,0,0,0-.4,1.14,1.57,1.57,0,0,0,.24.92,2.44,2.44,0,0,0,.74.68,5.4,5.4,0,0,0,1.08.49,10,10,0,0,0,1.31.35l1.92.42a14.81,14.81,0,0,1,2.56.77,7.64,7.64,0,0,1,2,1.19A4.8,4.8,0,0,1,103,397a5.21,5.21,0,0,1-1,3.14,6.42,6.42,0,0,1-2.84,2.05,12.22,12.22,0,0,1-4.44.72,12.71,12.71,0,0,1-4.5-.73,6.46,6.46,0,0,1-3-2.17,6.14,6.14,0,0,1-1.12-3.57h4.37a2.87,2.87,0,0,0,.61,1.65,3.47,3.47,0,0,0,1.47,1,6.24,6.24,0,0,0,2.09.32,5.91,5.91,0,0,0,2-.3,3.14,3.14,0,0,0,1.33-.86,1.91,1.91,0,0,0,.47-1.26,1.6,1.6,0,0,0-.43-1.12,3.42,3.42,0,0,0-1.23-.77,13.27,13.27,0,0,0-2-.57L92.5,394a10.13,10.13,0,0,1-4.26-1.9,4.25,4.25,0,0,1-1.56-3.47,4.9,4.9,0,0,1,1-3.13,6.9,6.9,0,0,1,2.88-2.09,10.92,10.92,0,0,1,4.17-.75,10.55,10.55,0,0,1,4.14.75,6.51,6.51,0,0,1,2.78,2.09,5.35,5.35,0,0,1,1,3.1Zm12.56-2v-2.94h17.68v2.94h-6.88v15.71h-3.92V386.62Zm30.44-2.94v19.63h-4.91V383.68Zm-1.94-2.19a2.47,2.47,0,0,1-1.68-.6,1.86,1.86,0,0,1-.7-1.46,1.83,1.83,0,0,1,.7-1.44,2.6,2.6,0,0,1,3.35,0,1.86,1.86,0,0,1,.7,1.44,1.9,1.9,0,0,1-.7,1.46A2.46,2.46,0,0,1,139.44,381.49Zm11.76,21.82V383.68h4.91v8.83H156l7.59-8.83h5.35l-7.83,8.42L169,403.31H163.7l-5.78-8.46-1.81,2.48v6Zm42.52-19.63,5.07,14.73H199l5.08-14.73h5.05l-7.33,19.63H196l-7.33-19.63ZM217,402.33V383.68h14.73v2.94h-9.82v4.91h8.83v3h-8.83v4.91h9.82v2.94Zm36.33-15.71v-2.94H271v2.94h-6.87v15.71h-3.93V386.62Zm30.43-2.94v19.63h-4.91V383.68Zm-2.26-2.19a2.51,2.51,0,0,1-1.68-.6,1.9,1.9,0,0,1-.7-1.46,1.86,1.86,0,0,1,.7-1.44,2.51,2.51,0,0,1,1.67-.61,2.48,2.48,0,0,1,1.68.61,1.83,1.83,0,0,1,.7,1.44,1.86,1.86,0,0,1-.7,1.46A2.45,2.45,0,0,1,281.48,381.49Zm30.26,9.06h-4.42a3.94,3.94,0,0,0-.5-1.41,3.77,3.77,0,0,0-1-1.07,4.49,4.49,0,0,0-1.35-.67,5.82,5.82,0,0,0-1.65-.23,5.16,5.16,0,0,0-2.8.74,4.79,4.79,0,0,0-1.85,2.13,7.8,7.8,0,0,0-.66,3.38,8,8,0,0,0,.66,3.43,4.73,4.73,0,0,0,1.86,2.1,5.2,5.2,0,0,0,2.76.71,6.06,6.06,0,0,0,1.63-.21,4.24,4.24,0,0,0,1.34-.63,3.72,3.72,0,0,0,1-1,3.87,3.87,0,0,0,.55-1.37l4.42,0a6.84,6.84,0,0,1-.86,2.54,7.68,7.68,0,0,1-1.83,2.18,8.83,8.83,0,0,1-2.72,1.51,10.75,10.75,0,0,1-3.57.55,10.39,10.39,0,0,1-4.95-1.16,8.53,8.53,0,0,1-3.44-3.35,10.61,10.61,0,0,1-1.26-5.31,10.46,10.46,0,0,1,1.28-5.33,8.55,8.55,0,0,1,3.46-3.34,10.32,10.32,0,0,1,4.91-1.16,11.4,11.4,0,0,1,3.33.47,8.6,8.6,0,0,1,2.74,1.37,7.07,7.07,0,0,1,1.94,2.17A7.56,7.56,0,0,1,311.74,390.55Zm12.68,11.78H320l7-18.65h5.5l7,18.65h-4.46l-5.17-14.72h-.16Zm-.42-6.87h11.78v3H324Zm24.54,6.87V383.68h8.11a6.48,6.48,0,0,1,4.08.48,5.84,5.84,0,0,1,2.59,2.22,6.24,6.24,0,0,1,.89,3.36,6,6,0,0,1-.91,3.34,5.64,5.64,0,0,1-2.62,2.13,41.72,41.72,0,0,1-4.15,1.23h-5v-3.93h4.84a5.88,5.88,0,0,0,2.12-.32,2.49,2.49,0,0,0,1.25-1,2.9,2.9,0,0,0,.42-1.61,3,3,0,0,0-.42-1.63,2.53,2.53,0,0,0-1.26-1,5.64,5.64,0,0,0-2.13-.35h-2.86v15.71Zm11.18-7.85,5.22,8.83H360l-5.11-8.83Zm13.37,7.85V383.68h13.74v2.94H378v4.91h8.84v3H378v4.91h9.82v2.94Zm22.58-15.71v-2.94h17.67v2.94h-6.87v15.71h-3.93V386.62Zm39.27,15.71V383.68h4.91v15.71h8.83v2.94Zm27.49-18.65v19.63h-4.91V383.68Zm-2.75-2.19a2.51,2.51,0,0,1-1.68-.6,1.86,1.86,0,0,1-.7-1.46A1.83,1.83,0,0,1,458,378a2.6,2.6,0,0,1,3.35,0,1.83,1.83,0,0,1,.7,1.44,1.86,1.86,0,0,1-.7,1.46A2.46,2.46,0,0,1,459.68,381.49Zm11.59,2.19h5.89l5.66,12.76h.24l5.66-12.76h5.13v19.63h-3.93V390.55h-.18l-5.53,12.76h-3.33l-5.51-12.76h-.18v12.76h-3.92Zm37.3,0v19.63h-4.9V383.68Zm-2.32-2.19a2.51,2.51,0,0,1-1.68-.6,1.9,1.9,0,0,1-.7-1.46,1.86,1.86,0,0,1,.7-1.44,2.52,2.52,0,0,1,1.68-.61,2.47,2.47,0,0,1,1.67.61,1.84,1.84,0,0,1,.71,1.44,1.87,1.87,0,0,1-.71,1.46A2.45,2.45,0,0,1,506.25,381.49Zm11.16,5.13v-2.94h17.67v2.94h-6.87v15.71h-3.93V386.62Zm26.51,15.71V383.68h13.74v2.94h-9.81v4.91h8.83v3h-8.83v4.91h9.81v2.94Zm31.1,1h-7.54V383.68h7.6a12,12,0,0,1,5.52,1.18,8.28,8.28,0,0,1,3.56,3.37,11.69,11.69,0,0,1,0,10.52,8.32,8.32,0,0,1-3.58,3.39A12.23,12.23,0,0,1,575,403.31Zm-3.61-3.92h2.91a8,8,0,0,0,3.42-.67,4.4,4.4,0,0,0,2.09-2.08,9.69,9.69,0,0,0,0-7.28,4.36,4.36,0,0,0-2.08-2.07,8,8,0,0,0-3.42-.67h-2.92Zm46.92-10.8a2.42,2.42,0,0,0-1.08-1.81,4.5,4.5,0,0,0-2.57-.65,5.36,5.36,0,0,0-1.87.29,2.7,2.7,0,0,0-1.16.78,1.74,1.74,0,0,0-.4,1.14,1.57,1.57,0,0,0,.24.92,2.44,2.44,0,0,0,.74.68,5.67,5.67,0,0,0,1.08.49,9.76,9.76,0,0,0,1.32.35l1.91.42a15.2,15.2,0,0,1,2.57.77,7.58,7.58,0,0,1,2,1.19,4.88,4.88,0,0,1,1.33,1.65,5,5,0,0,1,.49,2.19,5.21,5.21,0,0,1-1,3.14,6.39,6.39,0,0,1-2.83,2.05,12.28,12.28,0,0,1-4.45.72,12.79,12.79,0,0,1-4.5-.73,6.51,6.51,0,0,1-3-2.17,6.14,6.14,0,0,1-1.12-3.57h4.37a2.87,2.87,0,0,0,.61,1.65,3.47,3.47,0,0,0,1.47,1,6.26,6.26,0,0,0,2.1.32,6,6,0,0,0,2-.3,3.16,3.16,0,0,0,1.32-.86,1.91,1.91,0,0,0,.47-1.26,1.6,1.6,0,0,0-.43-1.12,3.42,3.42,0,0,0-1.23-.77,13.27,13.27,0,0,0-2-.57l-2.32-.54a10.13,10.13,0,0,1-4.26-1.9,4.21,4.21,0,0,1-1.55-3.47,4.84,4.84,0,0,1,1-3.13,6.9,6.9,0,0,1,2.88-2.09,11,11,0,0,1,4.17-.75,10.6,10.6,0,0,1,4.15.75,6.53,6.53,0,0,1,2.77,2.09,5.28,5.28,0,0,1,1,3.1Zm-4.81,13.74h2l-.16.83a3.33,3.33,0,0,1,1.73.73,2,2,0,0,1,.69,1.58,2.53,2.53,0,0,1-1.42,2.26,7.91,7.91,0,0,1-4,.85l-.05-1.81a5.56,5.56,0,0,0,2-.3,1,1,0,0,0,.77-.89.93.93,0,0,0-.48-.88,3.92,3.92,0,0,0-1.58-.43Zm22.69-18.65v19.63H631.3V383.68Zm-2.16-2.19a2.51,2.51,0,0,1-1.68-.6,1.9,1.9,0,0,1-.7-1.46,1.86,1.86,0,0,1,.7-1.44,2.51,2.51,0,0,1,1.67-.61,2.48,2.48,0,0,1,1.68.61,1.83,1.83,0,0,1,.7,1.44,1.86,1.86,0,0,1-.7,1.46A2.45,2.45,0,0,1,634.05,381.49Zm12,20.84V383.68h8.17a6.48,6.48,0,0,1,4.08.48,5.78,5.78,0,0,1,2.59,2.22,6.24,6.24,0,0,1,.89,3.36,6,6,0,0,1-.91,3.34,5.64,5.64,0,0,1-2.62,2.13,41.72,41.72,0,0,1-4.15,1.23H649v-3.93h4.85a5.88,5.88,0,0,0,2.12-.32,2.53,2.53,0,0,0,1.25-1,2.9,2.9,0,0,0,.42-1.61,3,3,0,0,0-.42-1.63,2.56,2.56,0,0,0-1.27-1,5.59,5.59,0,0,0-2.12-.35h-2.86v15.71Zm11.24-7.85,5.22,8.83h-4.9l-5.11-8.83Zm13.3,8.83V383.68h4.91v8.83h.12l7.59-8.83h5.35l-7.83,8.42,7.92,11.21H683.3l-5.78-8.46-2,2.48v6Zm25.53-1V383.68h14.73v2.94H701v4.91h8.83v3H701v4.91h9.82v2.94Zm23.56-15.71v-2.94h17.67v2.94h-6.87v15.71h-3.92V386.62Zm30.44-2.94v19.63h-4.91V383.68Zm-2-2.19a2.49,2.49,0,0,1-1.68-.6,1.86,1.86,0,0,1-.7-1.46,1.83,1.83,0,0,1,.7-1.44,2.47,2.47,0,0,1,1.67-.61,2.5,2.5,0,0,1,1.68.61,1.86,1.86,0,0,1,.7,1.44,1.9,1.9,0,0,1-.7,1.46A2.48,2.48,0,0,1,748.11,381.49Z"/><path class="cls-3" d="M747.84,311.66c7.74-15.51.85-34.73-14.94-41.08l-4.42-1.79-50,1-49.38-.22v80.22h21v-21h37.53c24.33,0,38,.32,39,.78,1.32.78,1.47,1.72,1.47,10.5v9.72h21.76l-.23-12.24c-.23-11.4-.39-12.41-2.32-16.44l-2.09-4.26ZM254.09,281.83a115.16,115.16,0,0,0,.37,12,8.46,8.46,0,0,0,2.32,4.88l.11.11,36.36-.09c19.85-.32,35.25-.56,36.26-.61,2.14-1.38,2.6-4.3,2.6-16.18,0-1.14,0-2.18,0-3.14v.74h0c0-5.22.06-8,.12-9.66,2.75-.13,5.37.11,9.4-.05.9,0,1.71,0,2.8,0l8.86.13.24,11.51a138.89,138.89,0,0,1-.62,16.73c-1.46,9.36-6.08,16.11-14.09,20.33-3.91,2.07-4.23,2.08-20.21,2.3h-.11l-16.39.23v28.77h-21V320.63l-13.65-.3c-13-.23-13.95-.31-17.85-2.24a25.44,25.44,0,0,1-14.7-18.36c-1-4.47-1.49-30-.51-30.94h19.71Zm-138.87-4.54c-3.24-3.48-6-5-11.27-6.41-3-.85-14.68-1.09-53.82-1.09H.09v80l51.41,1,51.67-.23,4.1-2.16a27.31,27.31,0,0,0,11.81-11.83c2.55-5.18,2.7-17.39.31-22.64l-1.55-3.4,1.93-3.95c1.7-3.4,1.93-4.94,1.93-11.66C121.7,286.18,120.47,282.7,115.22,277.29ZM243.1,350.48c0-.15-10.73-18.31-23.86-40.34L195.46,270l-12.82-.24-12.74-.15-1.54,2.09c-1.93,2.86-45.71,78.06-45.71,78.6,0,.23,5.09.46,11.42.46H145.7l4.94-8.5,5-8.5,26.37,1,26.59.15,4.49,7.89,4.5,8h13C237.47,350.79,243.1,350.64,243.1,350.48Zm242.22-45.13c6.71-14.6-.55-31.53-15.22-35.39-3.55-.93-13-1.17-54.59-1.17H365.09v80l50.9,1,52.18-.23,4-1.85c5.49-2.48,11.13-8.58,13.29-14.38a28.63,28.63,0,0,0-.54-19.94l-1.63-3.63Zm130.77-25.44v9.88l-42.38,1-41.52.23-3.46,1.92a32.18,32.18,0,0,0-4.83,3.41c-1.3,1.48-1.23,1.48,3.78,1.92h.06c2.92.29,22.56.51,43.82.51h38.53v22H521.67l3.38,2.91a20.28,20.28,0,0,0,6.14,3.84c1.69.45,18.81.76,44.82,1.25h42.08v21h-43.3c-46.9,0-47.59-.05-56.57-4.36-5.52-2.61-13.74-11-16.35-16.59a44.92,44.92,0,0,1,0-38.79A39.12,39.12,0,0,1,517.3,274.3l.37-.2c9.29-4.87,9.29-4.87,55.66-5.31h42.76Zm-594,10.88H96.76a3.34,3.34,0,0,1,3.33,3.34v2.33a3.33,3.33,0,0,1-3.33,3.33H22.09Zm74.67,30H22.09v9H96.76a3.33,3.33,0,0,0,3.33-3.33v-2.33A3.34,3.34,0,0,0,96.76,320.79ZM175.51,301c-3.69,6.23-7.22,12.14-7.83,13.06l-1.08,1.77h30.78L190,302.89l-4-7v0h0c-2-3.57-3.44-6-3.49-6S179.19,294.67,175.51,301Zm286.25-11.17H387.09v9h74.67a3.33,3.33,0,0,0,3.33-3.33v-2.33A3.34,3.34,0,0,0,461.76,289.79Zm-74.67,30h74.67a3.34,3.34,0,0,1,3.33,3.34v2.33a3.33,3.33,0,0,1-3.33,3.33H387.09Zm331.07-29H650.09v16h68.07a8,8,0,0,0,0-16Z"/></g></g></svg>