<svg xmlns="http://www.w3.org/2000/svg" viewBox="0 0 751.03 408.58"><defs><style>.prefix__cls-1{fill:#fff}</style></defs><g id="prefix__Layer_2" data-name="Layer 2"><g id="prefix__Layer_1-2" data-name="Layer 1"><path class="prefix__cls-1" d="M422.66 109.37L313.39 218.75h437.09L641.2 109.37 531.93 0zm173.78 16l61.88 61.94h-95.58L548 165.45c-8.16-12.12-14.74-22.66-14.74-23.72 0-.79 6.32-1.84 14.22-2.37l14.22-.79L547.47 103C534.3 70.05 532.2 63.46 534 63.46c.3 0 28.48 27.94 62.44 61.93zM93.55 125L.09 218.75H187l77.66-77.91c42.65-42.78 77.14-77.9 76.35-77.9s-20.8 6.6-44.23 14.52C273.09 85.39 252.3 92 250.72 92c-1.85 0-16.85-13.73-33.44-30.37L187 31.25zm53.71 25.32l-36.86 37-15.53-.79-15.54-.79 49.76-36.18c27.64-19.81 51.07-36.18 52.65-36.18 1.32-.3-13.95 16.34-34.48 36.94zM378.29 77.85l-14.07 14.24h13c12.25 0 13.81-.78 27.09-14.24l14.09-14.23h-13c-12.27 0-13.83.77-27.11 14.23zM315.93 139.71l-15.68 16.2h13.29c12.48 0 13.81-.81 29-16.2l15.67-16.2h-13.33c-12.48 0-13.81.81-28.95 16.2zM252.63 202.55L237 218.75h13.29c12.48 0 13.81-.81 29-16.2l15.67-16.2h-13.38c-12.48 0-13.81.81-28.95 16.2zM0 402.33v-18.65h4.91v15.71h8.84v2.94zm41.07-9.21a10.65 10.65 0 01-1.31 5.43 8.79 8.79 0 01-3.54 3.45 10.69 10.69 0 01-5 1.17 10.6 10.6 0 01-5.08-1.17 8.61 8.61 0 01-3.53-3.42 11.95 11.95 0 010-10.84 8.56 8.56 0 013.53-3.4 10.61 10.61 0 015.05-1.19 10.58 10.58 0 015 1.19 8.64 8.64 0 013.54 3.4 10.6 10.6 0 011.34 5.38zm-4.52 0a8.18 8.18 0 00-.67-3.48 4.85 4.85 0 00-1.88-2.16 5.81 5.81 0 00-5.64 0 4.87 4.87 0 00-1.88 2.16 9.5 9.5 0 000 7 4.84 4.84 0 001.88 2.15 5.74 5.74 0 005.64 0 4.82 4.82 0 001.87-2.15 8.21 8.21 0 00.68-3.52zm22.36-9.44h3.93V397a3.91 3.91 0 01-.58 3.28 5.82 5.82 0 01-2.52 2.14 8.85 8.85 0 01-3.76.75 9.31 9.31 0 01-3.46-.62 5.45 5.45 0 01-2.46-1.9 5.38 5.38 0 01-.89-3.19h4.44a2.61 2.61 0 00.34 1.29 2.22 2.22 0 00.89.83 2.93 2.93 0 001.36.29 2.8 2.8 0 001.39-.32 2.15 2.15 0 00.88-1 7.71 7.71 0 00.44-1.57zm18.65 0v19.63h-4.91v-19.63zm-2.49-2.19a2.51 2.51 0 01-1.68-.6 1.86 1.86 0 01-.7-1.46 1.83 1.83 0 01.7-1.44 2.51 2.51 0 011.67-.61 2.48 2.48 0 011.68.61 1.83 1.83 0 01.7 1.44 1.86 1.86 0 01-.7 1.46 2.46 2.46 0 01-1.67.6zm23.31 7.1a2.38 2.38 0 00-1.07-1.81 4.5 4.5 0 00-2.57-.65 5.36 5.36 0 00-1.87.29 2.7 2.7 0 00-1.16.78 1.74 1.74 0 00-.4 1.14 1.57 1.57 0 00.24.92 2.44 2.44 0 00.74.68 5.4 5.4 0 001.08.49 10 10 0 001.31.35l1.92.42a14.81 14.81 0 012.56.77 7.64 7.64 0 012 1.19A4.8 4.8 0 01103 397a5.21 5.21 0 01-1 3.14 6.42 6.42 0 01-2.84 2.05 12.22 12.22 0 01-4.44.72 12.71 12.71 0 01-4.5-.73 6.46 6.46 0 01-3-2.17 6.14 6.14 0 01-1.12-3.57h4.37a2.87 2.87 0 00.61 1.65 3.47 3.47 0 001.47 1 6.24 6.24 0 002.09.32 5.91 5.91 0 002-.3 3.14 3.14 0 001.33-.86 1.91 1.91 0 00.47-1.26 1.6 1.6 0 00-.43-1.12 3.42 3.42 0 00-1.23-.77 13.27 13.27 0 00-2-.57L92.5 394a10.13 10.13 0 01-4.26-1.9 4.25 4.25 0 01-1.56-3.47 4.9 4.9 0 011-3.13 6.9 6.9 0 012.88-2.09 10.92 10.92 0 014.17-.75 10.55 10.55 0 014.14.75 6.51 6.51 0 012.78 2.09 5.35 5.35 0 011 3.1zm12.56-2v-2.94h17.68v2.94h-6.88v15.71h-3.92v-15.68zm30.44-2.94v19.63h-4.91v-19.6zm-1.94-2.19a2.47 2.47 0 01-1.68-.6 1.86 1.86 0 01-.7-1.46 1.83 1.83 0 01.7-1.44 2.6 2.6 0 013.35 0 1.86 1.86 0 01.7 1.44 1.9 1.9 0 01-.7 1.46 2.46 2.46 0 01-1.67.63zm11.76 21.82v-19.6h4.91v8.83H156l7.59-8.83h5.35l-7.83 8.42 7.89 11.21h-5.3l-5.78-8.46-1.81 2.48v6zm42.52-19.63l5.07 14.73h.21l5.08-14.73h5.05l-7.33 19.63H196l-7.33-19.63zM217 402.33v-18.65h14.73v2.94h-9.82v4.91h8.83v3h-8.83v4.91h9.82v2.94zm36.33-15.71v-2.94H271v2.94h-6.87v15.71h-3.93v-15.71zm30.43-2.94v19.63h-4.91v-19.63zm-2.26-2.19a2.51 2.51 0 01-1.68-.6 1.9 1.9 0 01-.7-1.46 1.86 1.86 0 01.7-1.44 2.51 2.51 0 011.67-.61 2.48 2.48 0 011.68.61 1.83 1.83 0 01.7 1.44 1.86 1.86 0 01-.7 1.46 2.45 2.45 0 01-1.69.6zm30.26 9.06h-4.42a3.94 3.94 0 00-.5-1.41 3.77 3.77 0 00-1-1.07 4.49 4.49 0 00-1.35-.67 5.82 5.82 0 00-1.65-.23 5.16 5.16 0 00-2.8.74 4.79 4.79 0 00-1.85 2.13 7.8 7.8 0 00-.66 3.38 8 8 0 00.66 3.43 4.73 4.73 0 001.86 2.1 5.2 5.2 0 002.76.71 6.06 6.06 0 001.63-.21 4.24 4.24 0 001.34-.63 3.72 3.72 0 001-1 3.87 3.87 0 00.55-1.37h4.42a6.84 6.84 0 01-.86 2.54 7.68 7.68 0 01-1.83 2.18 8.83 8.83 0 01-2.72 1.51 10.75 10.75 0 01-3.57.55 10.39 10.39 0 01-4.95-1.16 8.53 8.53 0 01-3.44-3.35 10.61 10.61 0 01-1.26-5.31 10.46 10.46 0 011.28-5.33 8.55 8.55 0 013.46-3.34 10.32 10.32 0 014.91-1.16 11.4 11.4 0 013.33.47 8.6 8.6 0 012.74 1.37 7.07 7.07 0 011.94 2.17 7.56 7.56 0 01.96 2.96zm12.68 11.78H320l7-18.65h5.5l7 18.65h-4.46l-5.17-14.72h-.16zm-.42-6.87h11.78v3H324zm24.54 6.87v-18.65h8.11a6.48 6.48 0 014.08.48 5.84 5.84 0 012.59 2.22 6.24 6.24 0 01.89 3.36 6 6 0 01-.91 3.34 5.64 5.64 0 01-2.62 2.13 41.72 41.72 0 01-4.15 1.23h-5v-3.93h4.84a5.88 5.88 0 002.12-.32 2.49 2.49 0 001.25-1 2.9 2.9 0 00.42-1.61 3 3 0 00-.42-1.63 2.53 2.53 0 00-1.26-1 5.64 5.64 0 00-2.13-.35h-2.86v15.71zm11.18-7.85l5.22 8.83H360l-5.11-8.83zm13.37 7.85v-18.65h13.74v2.94H378v4.91h8.84v3H378v4.91h9.82v2.94zm22.58-15.71v-2.94h17.67v2.94h-6.87v15.71h-3.93v-15.71zm39.27 15.71v-18.65h4.91v15.71h8.83v2.94zm27.49-18.65v19.63h-4.91v-19.63zm-2.75-2.19a2.51 2.51 0 01-1.68-.6 1.86 1.86 0 01-.7-1.46A1.83 1.83 0 01458 378a2.6 2.6 0 013.35 0 1.83 1.83 0 01.7 1.44 1.86 1.86 0 01-.7 1.46 2.46 2.46 0 01-1.67.59zm11.59 2.19h5.89l5.66 12.76h.24l5.66-12.76h5.13v19.63h-3.93v-12.76h-.18l-5.53 12.76h-3.33l-5.51-12.76h-.18v12.76h-3.92zm37.3 0v19.63h-4.9v-19.63zm-2.32-2.19a2.51 2.51 0 01-1.68-.6 1.9 1.9 0 01-.7-1.46 1.86 1.86 0 01.7-1.44 2.52 2.52 0 011.68-.61 2.47 2.47 0 011.67.61 1.84 1.84 0 01.71 1.44 1.87 1.87 0 01-.71 1.46 2.45 2.45 0 01-1.69.6zm11.16 5.13v-2.94h17.67v2.94h-6.87v15.71h-3.93v-15.71zm26.51 15.71v-18.65h13.74v2.94h-9.81v4.91h8.83v3h-8.83v4.91h9.81v2.94zm31.1 1h-7.54v-19.65h7.6a12 12 0 015.52 1.18 8.28 8.28 0 013.56 3.37 11.69 11.69 0 010 10.52 8.32 8.32 0 01-3.58 3.39 12.23 12.23 0 01-5.6 1.17zm-3.61-3.92h2.91a8 8 0 003.42-.67 4.4 4.4 0 002.09-2.08 9.69 9.69 0 000-7.28 4.36 4.36 0 00-2.08-2.07 8 8 0 00-3.42-.67h-2.92zm46.92-10.8a2.42 2.42 0 00-1.08-1.81 4.5 4.5 0 00-2.57-.65 5.36 5.36 0 00-1.87.29 2.7 2.7 0 00-1.16.78 1.74 1.74 0 00-.4 1.14 1.57 1.57 0 00.24.92 2.44 2.44 0 00.74.68 5.67 5.67 0 001.08.49 9.76 9.76 0 001.32.35l1.91.42a15.2 15.2 0 012.57.77 7.58 7.58 0 012 1.19 4.88 4.88 0 011.33 1.65 5 5 0 01.49 2.19 5.21 5.21 0 01-1 3.14 6.39 6.39 0 01-2.83 2.05 12.28 12.28 0 01-4.45.72 12.79 12.79 0 01-4.5-.73 6.51 6.51 0 01-3-2.17 6.14 6.14 0 01-1.12-3.57h4.37a2.87 2.87 0 00.61 1.65 3.47 3.47 0 001.47 1 6.26 6.26 0 002.1.32 6 6 0 002-.3 3.16 3.16 0 001.32-.86 1.91 1.91 0 00.47-1.26 1.6 1.6 0 00-.43-1.12 3.42 3.42 0 00-1.23-.77 13.27 13.27 0 00-2-.57l-2.32-.54a10.13 10.13 0 01-4.26-1.9 4.21 4.21 0 01-1.55-3.47 4.84 4.84 0 011-3.13 6.9 6.9 0 012.88-2.09 11 11 0 014.17-.75 10.6 10.6 0 014.15.75 6.53 6.53 0 012.77 2.09 5.28 5.28 0 011 3.1zm-4.81 13.74h2l-.16.83a3.33 3.33 0 011.73.73 2 2 0 01.69 1.58 2.53 2.53 0 01-1.42 2.26 7.91 7.91 0 01-4 .85l-.05-1.81a5.56 5.56 0 002-.3 1 1 0 00.77-.89.93.93 0 00-.48-.88 3.92 3.92 0 00-1.58-.43zm22.69-18.65v19.63h-4.93v-19.65zm-2.16-2.19a2.51 2.51 0 01-1.68-.6 1.9 1.9 0 01-.7-1.46 1.86 1.86 0 01.7-1.44 2.51 2.51 0 011.67-.61 2.48 2.48 0 011.68.61 1.83 1.83 0 01.7 1.44 1.86 1.86 0 01-.7 1.46 2.45 2.45 0 01-1.69.58zm12 20.84v-18.67h8.17a6.48 6.48 0 014.08.48 5.78 5.78 0 012.59 2.22 6.24 6.24 0 01.89 3.36 6 6 0 01-.91 3.34 5.64 5.64 0 01-2.62 2.13 41.72 41.72 0 01-4.15 1.23H649v-3.93h4.85a5.88 5.88 0 002.12-.32 2.53 2.53 0 001.25-1 2.9 2.9 0 00.42-1.61 3 3 0 00-.42-1.63 2.56 2.56 0 00-1.27-1 5.59 5.59 0 00-2.12-.35h-2.86v15.71zm11.24-7.85l5.22 8.83h-4.9l-5.11-8.83zm13.3 8.83v-19.65h4.91v8.83h.12l7.59-8.83h5.35l-7.83 8.42 7.92 11.21h-5.37l-5.78-8.46-2 2.48v6zm25.53-1v-18.65h14.73v2.94H701v4.91h8.83v3H701v4.91h9.82v2.94zm23.56-15.71v-2.94h17.67v2.94h-6.87v15.71h-3.92v-15.71zm30.44-2.94v19.63h-4.91v-19.63zm-2-2.19a2.49 2.49 0 01-1.68-.6 1.86 1.86 0 01-.7-1.46 1.83 1.83 0 01.7-1.44 2.47 2.47 0 011.67-.61 2.5 2.5 0 011.68.61 1.86 1.86 0 01.7 1.44 1.9 1.9 0 01-.7 1.46 2.48 2.48 0 01-1.7.6z"/><path d="M747.84 311.66c7.74-15.51.85-34.73-14.94-41.08l-4.42-1.79-50 1-49.38-.22v80.22h21v-21h37.53c24.33 0 38 .32 39 .78 1.32.78 1.47 1.72 1.47 10.5v9.72h21.76l-.23-12.24c-.23-11.4-.39-12.41-2.32-16.44l-2.09-4.26zm-493.75-29.83a115.16 115.16 0 00.37 12 8.46 8.46 0 002.32 4.88l.11.11 36.36-.09c19.85-.32 35.25-.56 36.26-.61 2.14-1.38 2.6-4.3 2.6-16.18v-3.14.74c0-5.22.06-8 .12-9.66 2.75-.13 5.37.11 9.4-.05h2.8l8.86.13.24 11.51a138.89 138.89 0 01-.62 16.73c-1.46 9.36-6.08 16.11-14.09 20.33-3.91 2.07-4.23 2.08-20.21 2.3h-.11l-16.39.23v28.77h-21v-29.2l-13.65-.3c-13-.23-13.95-.31-17.85-2.24a25.44 25.44 0 01-14.7-18.36c-1-4.47-1.49-30-.51-30.94h19.71zm-138.87-4.54c-3.24-3.48-6-5-11.27-6.41-3-.85-14.68-1.09-53.82-1.09H.09v80l51.41 1 51.67-.23 4.1-2.16a27.31 27.31 0 0011.81-11.83c2.55-5.18 2.7-17.39.31-22.64l-1.55-3.4 1.93-3.95c1.7-3.4 1.93-4.94 1.93-11.66 0-8.74-1.23-12.22-6.48-17.63zm127.88 73.19c0-.15-10.73-18.31-23.86-40.34L195.46 270l-12.82-.24-12.74-.15-1.54 2.09c-1.93 2.86-45.71 78.06-45.71 78.6 0 .23 5.09.46 11.42.46h11.63l4.94-8.5 5-8.5 26.37 1 26.59.15 4.49 7.89 4.5 8h13c6.88-.01 12.51-.16 12.51-.32zm242.22-45.13c6.71-14.6-.55-31.53-15.22-35.39-3.55-.93-13-1.17-54.59-1.17h-50.42v80l50.9 1 52.18-.23 4-1.85c5.49-2.48 11.13-8.58 13.29-14.38a28.63 28.63 0 00-.54-19.94l-1.63-3.63zm130.77-25.44v9.88l-42.38 1-41.52.23-3.46 1.92a32.18 32.18 0 00-4.83 3.41c-1.3 1.48-1.23 1.48 3.78 1.92h.06c2.92.29 22.56.51 43.82.51h38.53v22h-88.42l3.38 2.91a20.28 20.28 0 006.14 3.84c1.69.45 18.81.76 44.82 1.25h42.08v21h-43.3c-46.9 0-47.59-.05-56.57-4.36-5.52-2.61-13.74-11-16.35-16.59a44.92 44.92 0 010-38.79 39.12 39.12 0 0115.43-15.74l.37-.2c9.29-4.87 9.29-4.87 55.66-5.31h42.76zm-594 10.88h74.67a3.34 3.34 0 013.33 3.34v2.33a3.33 3.33 0 01-3.33 3.33H22.09zm74.67 30H22.09v9h74.67a3.33 3.33 0 003.33-3.33v-2.33a3.34 3.34 0 00-3.33-3.34zM175.51 301c-3.69 6.23-7.22 12.14-7.83 13.06l-1.08 1.77h30.78L190 302.89l-4-7c-2-3.57-3.44-6-3.49-6s-3.32 4.78-7 11.11zm286.25-11.17h-74.67v9h74.67a3.33 3.33 0 003.33-3.33v-2.33a3.34 3.34 0 00-3.33-3.38zm-74.67 30h74.67a3.34 3.34 0 013.33 3.34v2.33a3.33 3.33 0 01-3.33 3.33h-74.67zm331.07-29h-68.07v16h68.07a8 8 0 000-16z" fill-rule="evenodd" fill="#fff"/></g></g></svg>