<svg width="108" height="108" viewBox="0 0 108 108" fill="none" xmlns="http://www.w3.org/2000/svg">
    <g clip-path="url(#clip0_110_621)">
        <path
            d="M4.35684 28.2993L51.5845 54.7631C52.403 55.2218 53.4048 55.2218 54.2233 54.7631L101.451 28.2993C103.314 27.2551 103.244 24.577 101.328 23.6299L54.1007 0.279386C53.3473 -0.0931288 52.4605 -0.0931288 51.7071 0.279386L4.47941 23.6299C2.56367 24.577 2.49337 27.2551 4.35684 28.2993ZM6.99567 23.6944L6.8731 28.3639L54.1007 5.01339H51.7071L98.9347 28.3639L98.8121 23.6944L51.5845 50.1583H54.2233L6.99567 23.6944Z"
            fill="white" />
        <path
            d="M50.2277 54.6401V105.486C50.2277 107.511 52.4354 108.786 54.2194 107.79L104.596 79.6725C105.436 79.2032 105.956 78.3225 105.956 77.3679V43.1205C105.956 41.6589 104.758 40.4741 103.28 40.4741C101.802 40.4741 100.604 41.6589 100.604 43.1205V77.3679L101.965 75.0633L51.5884 103.181L55.5801 105.486V54.6401C55.5801 53.1785 54.3819 51.9937 52.9039 51.9937C51.4258 51.9937 50.2277 53.1785 50.2277 54.6401Z"
            fill="white" />
        <path
            d="M54.2843 103.219L7.05665 75.1008L8.35247 77.368V27.5536C8.35247 26.0921 7.15428 24.9072 5.67623 24.9072C4.19819 24.9072 3 26.0921 3 27.5536V77.368C3 78.2961 3.49171 79.1564 4.29582 79.6351L51.5235 107.753C52.7897 108.507 54.4342 108.103 55.1966 106.851C55.959 105.599 55.5505 103.972 54.2843 103.219Z"
            fill="white" />
        <path
            d="M16.8934 48.5032L32.6359 57.8434C33.9033 58.5954 35.5472 58.189 36.3077 56.9357C37.0681 55.6824 36.6571 54.0568 35.3897 53.3049L19.6472 43.9647C18.3798 43.2127 16.7359 43.6191 15.9754 44.8724C15.215 46.1257 15.6259 47.7512 16.8934 48.5032Z"
            fill="white" />
    </g>
    <defs>
        <clipPath id="clip0_110_621">
            <rect width="108" height="108" fill="white" />
        </clipPath>
    </defs>
</svg>