<svg width="70" height="65" viewBox="0 0 70 65" fill="none" xmlns="http://www.w3.org/2000/svg">
    <path
        d="M31.1582 64.2194C30.9799 64.2194 30.8017 64.1894 30.6296 64.1277L1.39273 53.6501C0.787264 53.4336 0.384644 52.869 0.384644 52.2382V15.9757C0.384644 15.4847 0.62975 15.0246 1.04082 14.7426C1.45266 14.4615 1.97822 14.3938 2.44922 14.5637L31.6861 25.0405C32.2915 25.2578 32.6942 25.8217 32.6942 26.4525V62.7158C32.6942 63.2067 32.449 63.6676 32.038 63.9488C31.7767 64.127 31.4694 64.2194 31.1582 64.2194ZM3.45808 51.1879L29.6215 60.564V27.5036L3.45808 18.1274V51.1879Z"
        fill="white" />
    <path
        d="M31.1582 64.2194C30.8478 64.2194 30.5396 64.1269 30.2776 63.9487C29.8658 63.6675 29.6215 63.2074 29.6215 62.7157V26.4524C29.6215 25.6224 30.3099 24.9487 31.1582 24.9487C32.0064 24.9487 32.6949 25.6224 32.6949 26.4524V60.5639L38.3339 58.543C39.1284 58.2565 40.0135 58.6573 40.3047 59.4377C40.5967 60.2173 40.1872 61.0812 39.3904 61.3661L31.686 64.1269C31.5155 64.1893 31.3364 64.2194 31.1582 64.2194Z"
        fill="white" />
    <path
        d="M60.3958 33.6669C59.5475 33.6669 58.8591 32.9933 58.8591 32.1633V18.1273L31.6868 27.8643C30.89 28.15 30.0072 27.7492 29.7152 26.9696C29.4233 26.1892 29.8328 25.3261 30.6296 25.0404L59.8672 14.5636C60.3367 14.3929 60.8638 14.4613 61.2756 14.7425C61.6867 15.0244 61.9318 15.4838 61.9318 15.9755V32.1633C61.9325 32.9933 61.2441 33.6669 60.3958 33.6669Z"
        fill="white" />
    <path
        d="M31.1582 27.956C30.9792 27.956 30.8001 27.9252 30.6296 27.8643L1.39273 17.3875C0.787264 17.1702 0.384644 16.6063 0.384644 15.9755C0.384644 15.3447 0.787264 14.7809 1.39273 14.5636L30.6303 4.08752C30.9707 3.96497 31.3464 3.96497 31.6868 4.08752L60.9237 14.5636C61.5291 14.7809 61.9325 15.3447 61.9325 15.9755C61.9325 16.6063 61.5299 17.1702 60.9237 17.3875L31.6868 27.8643C31.5163 27.926 31.3372 27.956 31.1582 27.956ZM6.39014 15.9755L31.1582 24.851L55.9263 15.9755L31.1582 7.10012L6.39014 15.9755Z"
        fill="white" />
    <path
        d="M15.801 32.2933C14.9527 32.2933 14.2643 31.6196 14.2643 30.7896V20.9496C14.2643 20.3158 14.6707 19.7497 15.2801 19.5354L44.7512 9.14201C45.5473 8.85856 46.4301 9.26531 46.7182 10.0465C47.0056 10.8276 46.5915 11.6892 45.7931 11.9712L17.3377 22.0059V30.7896C17.3377 31.6196 16.65 32.2933 15.801 32.2933Z"
        fill="white" />
    <path
        d="M51.5636 55.3726C51.1563 55.3726 50.7652 55.214 50.4771 54.932L45.6856 50.2436C45.0855 49.6564 45.0855 48.7046 45.6856 48.1174C46.2857 47.5302 47.2584 47.5302 47.8585 48.1174L51.5636 51.7427L60.0601 43.4282C60.6602 42.841 61.6329 42.841 62.233 43.4282C62.8331 44.0154 62.8331 44.9672 62.233 45.5544L52.65 54.932C52.3619 55.214 51.9715 55.3726 51.5636 55.3726Z"
        fill="white" />
    <path
        d="M53.96 64.4231C45.3698 64.4231 38.3823 57.5852 38.3823 49.1812C38.3823 40.7757 45.3706 33.9385 53.96 33.9385C62.5488 33.9377 69.537 40.7749 69.537 49.1804C69.537 57.5852 62.5488 64.4231 53.96 64.4231ZM53.96 36.9451C47.0648 36.9451 41.4558 42.4342 41.4558 49.1804C41.4558 55.9267 47.0656 61.4151 53.96 61.4151C60.8545 61.4151 66.4636 55.9274 66.4636 49.1804C66.4636 42.4335 60.8545 36.9451 53.96 36.9451Z"
        fill="white" />
</svg>